<svg xmlns="http://www.w3.org/2000/svg" height='23px' width='23px' viewBox="0 0 32 32"><path d="M30.56 8.47a8 8 0 0 0-7-7 64.29 64.29 0 0 0-15.06 0 8 8 0 0 0-7 7 64.29 64.29 0 0 0 0 15.06 8 8 0 0 0 7 7 64.29 64.29 0 0 0 15.06 0 8 8 0 0 0 7-7 64.29 64.29 0 0 0 0-15.06zm-8.69 8 6.76-7.09a63.05 63.05 0 0 1 0 13zM8.7 3.42a63.65 63.65 0 0 1 14.6 0A6 6 0 0 1 28.1 7l-9.53 10h-5.14L3.9 7a6 6 0 0 1 4.8-3.58zm-5.36 19a63.05 63.05 0 0 1 0-13l6.76 7.09zm20 6.21a63.65 63.65 0 0 1-14.6 0 6 6 0 0 1-4.94-3.92l7.75-6.78.77.81A1 1 0 0 0 13 19h6a1 1 0 0 0 .72-.31l.77-.81 7.75 6.78a6 6 0 0 1-4.94 3.92z" data-name="email android app aplication phone"/></svg>